<?xml version="1.0" encoding="UTF-8"?>
<!DOCTYPE svg PUBLIC "-//W3C//DTD SVG 1.1//EN" "http://www.w3.org/Graphics/SVG/1.1/DTD/svg11.dtd">
<svg xmlns="http://www.w3.org/2000/svg" version="1.1" width="577px" height="163px" style="shape-rendering:geometricPrecision; text-rendering:geometricPrecision; image-rendering:optimizeQuality; fill-rule:evenodd; clip-rule:evenodd" xmlns:xlink="http://www.w3.org/1999/xlink">
<g><path style="opacity:0.502" fill="#7e678a" d="M 43.5,52.5 C 53.9869,51.5056 64.6536,51.1722 75.5,51.5C 75.1667,52.5 74.5,53.1667 73.5,53.5C 63.6806,52.506 53.6806,52.1726 43.5,52.5 Z"/></g>
<g><path style="opacity:0.979" fill="#5b3e6c" d="M 43.5,52.5 C 53.6806,52.1726 63.6806,52.506 73.5,53.5C 67.1937,59.1396 61.1937,65.1396 55.5,71.5C 54.5416,71.9528 53.7083,72.6195 53,73.5C 54.0826,79.5732 51.9159,83.7399 46.5,86C 44.3985,87.7328 44.0652,89.7328 45.5,92C 48.4766,93.3183 51.3099,94.8183 54,96.5C 54.9478,107.029 58.7812,108.196 65.5,100C 68.8333,99.6667 72.1667,99.3333 75.5,99C 76.3805,98.2917 77.0472,97.4584 77.5,96.5C 84.5,89.8333 91.5,83.1667 98.5,76.5C 98.6665,86.5056 98.4998,96.5056 98,106.5C 96.28,109.095 93.78,110.595 90.5,111C 83.1667,111.167 75.8333,111.333 68.5,111.5C 59.7751,111.606 51.1085,111.106 42.5,110C 40.2344,108.486 39.0677,106.319 39,103.5C 38.3333,88.1667 38.3333,72.8333 39,57.5C 39.3122,54.6908 40.8122,53.0241 43.5,52.5 Z"/></g>
<g><path style="opacity:0.994" fill="#a3843b" d="M 75.5,51.5 C 81.1764,51.3339 86.8431,51.5006 92.5,52C 94.0806,52.7065 95.5806,53.5399 97,54.5C 98.4286,61.7194 98.9286,69.0528 98.5,76.5C 91.5,83.1667 84.5,89.8333 77.5,96.5C 75.9788,93.2923 74.3121,90.1257 72.5,87C 77.9778,77.1548 75.4778,73.9882 65,77.5C 61.6751,75.6601 58.5084,73.6601 55.5,71.5C 61.1937,65.1396 67.1937,59.1396 73.5,53.5C 74.5,53.1667 75.1667,52.5 75.5,51.5 Z"/></g>
<g><path style="opacity:0.734" fill="#fbd070" d="M 516.5,51.5 C 517.833,51.5 519.167,51.5 520.5,51.5C 520.66,53.1992 520.494,54.8659 520,56.5C 519.259,55.3595 518.425,55.3595 517.5,56.5C 516.548,54.9547 516.215,53.288 516.5,51.5 Z"/></g>
<g><path style="opacity:0.829" fill="#fac95a" d="M 533.5,51.5 C 534.496,51.4142 535.329,51.7476 536,52.5C 537.057,55.559 538.891,58.059 541.5,60C 538.489,62.5006 536.322,65.6673 535,69.5C 532.495,67.8037 530.995,65.4703 530.5,62.5C 525.377,60.6247 525.377,58.958 530.5,57.5C 531.883,55.6802 532.883,53.6802 533.5,51.5 Z"/></g>
<g><path style="opacity:0.805" fill="#fbce6a" d="M 509.5,54.5 C 515.45,58.0203 515.783,62.0203 510.5,66.5C 508.167,64.8333 506.167,62.8333 504.5,60.5C 507.173,59.3209 508.84,57.3209 509.5,54.5 Z"/></g>
<g><path style="opacity:0.942" fill="#3c3d44" d="M 114.5,58.5 C 116.833,58.5 119.167,58.5 121.5,58.5C 121.5,73.1667 121.5,87.8333 121.5,102.5C 119.167,102.5 116.833,102.5 114.5,102.5C 114.5,87.8333 114.5,73.1667 114.5,58.5 Z"/></g>
<g><path style="opacity:0.777" fill="#404148" d="M 254.5,58.5 C 260.359,57.0737 262.359,59.0737 260.5,64.5C 258.604,65.4656 256.604,65.7989 254.5,65.5C 254.5,63.1667 254.5,60.8333 254.5,58.5 Z"/></g>
<g><path style="opacity:0.918" fill="#3c3d44" d="M 339.5,58.5 C 341.833,58.5 344.167,58.5 346.5,58.5C 346.334,64.1764 346.501,69.8431 347,75.5C 347.5,76 348,76.5 348.5,77C 355.158,77.4996 361.825,77.6663 368.5,77.5C 368.5,71.1667 368.5,64.8333 368.5,58.5C 370.833,58.5 373.167,58.5 375.5,58.5C 375.5,73.1667 375.5,87.8333 375.5,102.5C 373.167,102.5 370.833,102.5 368.5,102.5C 368.666,96.8236 368.499,91.1569 368,85.5C 367.5,85 367,84.5 366.5,84C 360.5,83.3333 354.5,83.3333 348.5,84C 348,84.5 347.5,85 347,85.5C 346.501,91.1569 346.334,96.8236 346.5,102.5C 344.167,102.5 341.833,102.5 339.5,102.5C 339.5,87.8333 339.5,73.1667 339.5,58.5 Z"/></g>
<g><path style="opacity:0.012" fill="#f9fafa" d="M 254.5,68.5 C 256.288,67.3775 258.288,67.2109 260.5,68C 258.527,68.4955 256.527,68.6621 254.5,68.5 Z"/></g>
<g><path style="opacity:0.885" fill="#43444a" d="M 142.5,69.5 C 145.518,69.3354 148.518,69.502 151.5,70C 153.667,70.8333 155.167,72.3333 156,74.5C 157.339,71.9057 159.506,70.4057 162.5,70C 171.754,67.5352 176.587,71.0352 177,80.5C 177.726,87.8692 177.559,95.2025 176.5,102.5C 174.5,102.5 172.5,102.5 170.5,102.5C 170.666,94.4931 170.5,86.4931 170,78.5C 166.939,74.1219 163.272,73.4553 159,76.5C 158.167,79 157.333,81.5 156.5,84C 156.625,89.9983 156.625,96.1649 156.5,102.5C 154.5,102.5 152.5,102.5 150.5,102.5C 150.666,94.8261 150.5,87.1594 150,79.5C 147.578,74.5319 144.078,73.5319 139.5,76.5C 138.308,78.7415 137.308,81.0748 136.5,83.5C 137.694,89.8118 137.694,96.1452 136.5,102.5C 134.5,102.5 132.5,102.5 130.5,102.5C 130.5,91.8333 130.5,81.1667 130.5,70.5C 133.365,70.0548 135.865,70.7215 138,72.5C 139.409,71.2189 140.909,70.2189 142.5,69.5 Z"/></g>
<g><path style="opacity:0.883" fill="#46474d" d="M 191.5,69.5 C 195.182,69.3347 198.848,69.5014 202.5,70C 203.76,71.113 204.927,71.2797 206,70.5C 209.927,74.6354 211.761,79.6354 211.5,85.5C 210.898,91.1226 210.898,96.7892 211.5,102.5C 208.635,102.945 206.135,102.278 204,100.5C 197.062,104.653 190.395,104.319 184,99.5C 181.446,94.3221 182.279,89.8221 186.5,86C 192.346,83.9975 198.346,82.8308 204.5,82.5C 204.358,78.0191 202.025,75.3524 197.5,74.5C 194.249,74.9526 191.915,76.6193 190.5,79.5C 188.604,80.4656 186.604,80.7989 184.5,80.5C 184.079,74.9951 186.413,71.3284 191.5,69.5 Z M 201.5,87.5 C 205.043,89.693 205.377,92.3596 202.5,95.5C 198.733,98.8709 194.733,99.2042 190.5,96.5C 189.167,94.8333 189.167,93.1667 190.5,91.5C 192.193,90.7717 193.693,89.7717 195,88.5C 195.333,88.8333 195.667,89.1667 196,89.5C 197.948,88.8906 199.782,88.224 201.5,87.5 Z"/></g>
<g><path style="opacity:0.898" fill="#44454b" d="M 237.5,71.5 C 239.314,75.6429 240.314,75.3095 240.5,70.5C 242.5,70.5 244.5,70.5 246.5,70.5C 246.667,81.1719 246.5,91.8385 246,102.5C 245.326,105.26 244.493,107.927 243.5,110.5C 241.274,111.96 239.107,112.96 237,113.5C 235.039,113.025 232.873,113.025 230.5,113.5C 224.055,113.273 219.722,110.106 217.5,104C 219.902,103.186 222.235,103.353 224.5,104.5C 230.075,110.172 235.075,109.838 239.5,103.5C 240.797,101.307 240.797,98.9732 239.5,96.5C 238.575,97.3569 237.908,98.3569 237.5,99.5C 224.339,103.913 217.006,99.0795 215.5,85C 217.442,71.5364 224.775,67.0364 237.5,71.5 Z M 230.5,74.5 C 236.779,75.4486 239.779,79.1153 239.5,85.5C 238.549,95.6326 233.716,98.2993 225,93.5C 223,88.5 223,83.5 225,78.5C 226.5,76.5313 228.333,75.198 230.5,74.5 Z"/></g>
<g><path style="opacity:0.896" fill="#46474e" d="M 281.5,69.5 C 287.913,68.2093 292.58,70.376 295.5,76C 296.593,84.4752 296.76,92.9752 296,101.5C 294.186,102.76 292.353,102.76 290.5,101.5C 289.773,92.8487 289.106,84.182 288.5,75.5C 283.467,73.8992 279.3,75.2325 276,79.5C 275.5,87.1594 275.334,94.8261 275.5,102.5C 273.208,102.756 271.041,102.423 269,101.5C 268.5,91.172 268.334,80.8387 268.5,70.5C 271.466,70.1103 274.132,70.777 276.5,72.5C 278.145,71.3037 279.811,70.3037 281.5,69.5 Z"/></g>
<g><path style="opacity:0.859" fill="#43444a" d="M 304.5,76.5 C 306.5,75.1667 308.167,73.5 309.5,71.5C 324.943,66.3435 332.943,72.0102 333.5,88.5C 325.826,88.3336 318.159,88.5003 310.5,89C 308.398,90.7295 308.565,92.5628 311,94.5C 315.795,99.7431 320.628,99.7431 325.5,94.5C 327.765,93.3526 330.098,93.1859 332.5,94C 331.283,95.6477 330.45,97.481 330,99.5C 321.537,104.76 313.537,104.76 306,99.5C 300.905,92.0413 300.405,84.3746 304.5,76.5 Z M 316.5,74.5 C 321.764,75.4338 325.097,78.4338 326.5,83.5C 320.379,83.9101 314.379,83.4101 308.5,82C 310.399,78.5989 313.065,76.0989 316.5,74.5 Z"/></g>
<g><path style="opacity:0.86" fill="#42434a" d="M 390.5,88.5 C 388.448,89.0527 388.115,90.0527 389.5,91.5C 393.53,99.1731 398.864,100.173 405.5,94.5C 407.765,93.3526 410.098,93.1859 412.5,94C 411.283,95.6477 410.45,97.481 410,99.5C 402.305,104.622 394.472,104.789 386.5,100C 380.972,92.4986 380.305,84.6653 384.5,76.5C 386.5,75.1667 388.167,73.5 389.5,71.5C 404.96,66.4592 412.96,71.9592 413.5,88C 405.841,88.4997 398.174,88.6664 390.5,88.5 Z M 405.5,79.5 C 405.473,81.1993 404.806,82.5326 403.5,83.5C 399.154,83.6657 394.821,83.499 390.5,83C 390.147,78.4732 392.48,75.6398 397.5,74.5C 400.696,75.3709 403.363,77.0375 405.5,79.5 Z"/></g>
<g><path style="opacity:0.867" fill="#43444b" d="M 440.5,76.5 C 442.5,75.1667 444.167,73.5 445.5,71.5C 452.907,68.158 459.74,69.158 466,74.5C 468.537,78.9831 469.371,83.3165 468.5,87.5C 461.189,88.3313 453.856,88.8313 446.5,89C 445.833,89.6667 445.167,90.3333 444.5,91C 446.59,95.4168 450.09,97.9168 455,98.5C 457.65,97.9558 459.816,96.6224 461.5,94.5C 463.765,93.3526 466.098,93.1859 468.5,94C 464.253,102.929 457.253,105.763 447.5,102.5C 445.87,101.579 444.203,100.745 442.5,100C 436.972,92.4986 436.305,84.6653 440.5,76.5 Z M 452.5,74.5 C 457.92,75.2526 460.92,78.2526 461.5,83.5C 456.319,83.3695 451.319,83.3695 446.5,83.5C 445.167,81.8333 445.167,80.1667 446.5,78.5C 448.29,76.6843 450.29,75.3509 452.5,74.5 Z"/></g>
<g><path style="opacity:0.059" fill="#afafb3" d="M 240.5,70.5 C 240.314,75.3095 239.314,75.6429 237.5,71.5C 238.117,71.6107 238.617,71.944 239,72.5C 239.278,71.5842 239.778,70.9175 240.5,70.5 Z"/></g>
<g><path style="opacity:0.901" fill="#45464c" d="M 254.5,70.5 C 256.792,70.2436 258.959,70.5769 261,71.5C 261.167,76.3333 261.333,81.1667 261.5,86C 261.118,91.5403 261.118,96.8736 261.5,102C 259.19,102.497 256.857,102.663 254.5,102.5C 254.5,91.8333 254.5,81.1667 254.5,70.5 Z"/></g>
<g><path style="opacity:0.878" fill="#45464c" d="M 425.5,71.5 C 425.345,74.8531 426.012,75.1864 427.5,72.5C 429.851,70.7971 432.518,70.2971 435.5,71C 435.854,72.6255 435.854,74.4588 435.5,76.5C 431.69,76.379 428.523,77.7124 426,80.5C 425.5,87.8258 425.334,95.1591 425.5,102.5C 422.921,102.917 420.754,102.25 419,100.5C 418.5,90.5056 418.334,80.5056 418.5,70.5C 421.059,70.1984 423.393,70.5318 425.5,71.5 Z"/></g>
<g><path style="opacity:0.043" fill="#ceced9" d="M 517.5,70.5 C 518.833,71.1667 518.833,71.1667 517.5,70.5 Z"/></g>
<g><path style="opacity:0.006" fill="#ededef" d="M 425.5,71.5 C 426.167,71.8333 426.833,72.1667 427.5,72.5C 426.012,75.1864 425.345,74.8531 425.5,71.5 Z"/></g>
<g><path style="opacity:1" fill="#f8d13f" d="M 55.5,71.5 C 58.5084,73.6601 61.6751,75.6601 65,77.5C 75.4778,73.9882 77.9778,77.1548 72.5,87C 74.3121,90.1257 75.9788,93.2923 77.5,96.5C 77.0472,97.4584 76.3805,98.2917 75.5,99C 72.1667,99.3333 68.8333,99.6667 65.5,100C 58.7812,108.196 54.9478,107.029 54,96.5C 51.3099,94.8183 48.4766,93.3183 45.5,92C 44.0652,89.7328 44.3985,87.7328 46.5,86C 51.9159,83.7399 54.0826,79.5732 53,73.5C 53.7083,72.6195 54.5416,71.9528 55.5,71.5 Z"/></g>
<g><path style="opacity:0.082" fill="#acadb0" d="M 309.5,71.5 C 308.167,73.5 306.5,75.1667 304.5,76.5C 305.167,73.8333 306.833,72.1667 309.5,71.5 Z"/></g>
<g><path style="opacity:0.114" fill="#acadb0" d="M 389.5,71.5 C 388.167,73.5 386.5,75.1667 384.5,76.5C 385.167,73.8333 386.833,72.1667 389.5,71.5 Z"/></g>
<g><path style="opacity:0.114" fill="#acadb0" d="M 445.5,71.5 C 444.167,73.5 442.5,75.1667 440.5,76.5C 441.167,73.8333 442.833,72.1667 445.5,71.5 Z"/></g>
<g><path style="opacity:0.717" fill="#fcd070" d="M 503.5,72.5 C 505.256,73.5521 505.923,75.2188 505.5,77.5C 504.167,77.5 502.833,77.5 501.5,77.5C 501.365,75.4458 502.032,73.7791 503.5,72.5 Z"/></g>
<g><path style="opacity:0.745" fill="#fcd173" d="M 537.5,72.5 C 538.473,73.7914 539.473,73.7914 540.5,72.5C 541.452,74.0453 541.785,75.712 541.5,77.5C 540.167,77.5 538.833,77.5 537.5,77.5C 537.5,75.8333 537.5,74.1667 537.5,72.5 Z"/></g>
<g><path style="opacity:0.935" fill="#5a517d" d="M 517.5,71.5 C 518.242,73.4258 519.242,75.2591 520.5,77C 511.558,86.9439 502.225,96.6105 492.5,106C 490.193,106.337 488.36,105.504 487,103.5C 486.282,104.451 485.449,104.617 484.5,104C 496.124,93.5404 507.124,82.707 517.5,71.5 Z"/></g>
<g><path style="opacity:0.004" fill="#d7d6de" d="M 521.5,75.5 C 522.833,76.1667 522.833,76.1667 521.5,75.5 Z"/></g>
<g><path style="opacity:0.811" fill="#fbce6a" d="M 530.5,76.5 C 531.522,79.3617 533.188,81.8617 535.5,84C 533.649,85.6837 531.982,87.5171 530.5,89.5C 528.167,87.8333 526.167,85.8333 524.5,83.5C 526.523,81.1472 528.523,78.8138 530.5,76.5 Z"/></g>
<g><path style="opacity:0.004" fill="#f9fafa" d="M 188.5,82.5 C 189.833,83.1667 189.833,83.1667 188.5,82.5 Z"/></g>
<g><path style="opacity:0.047" fill="#dbdbdd" d="M 405.5,79.5 C 406.434,80.5676 406.768,81.901 406.5,83.5C 405.5,83.5 404.5,83.5 403.5,83.5C 404.806,82.5326 405.473,81.1993 405.5,79.5 Z"/></g>
<g><path style="opacity:0.004" fill="#f9fafa" d="M 298.5,84.5 C 299.573,85.2506 299.74,86.2506 299,87.5C 298.517,86.552 298.351,85.552 298.5,84.5 Z"/></g>
<g><path style="opacity:0.004" fill="#dfe0e1" d="M 390.5,88.5 C 389.89,89.391 389.557,90.391 389.5,91.5C 388.115,90.0527 388.448,89.0527 390.5,88.5 Z"/></g>
<g><path style="opacity:0.008" fill="#f9fafa" d="M 326.5,91.5 C 327.946,90.3871 329.613,90.2204 331.5,91C 329.866,91.4935 328.199,91.6602 326.5,91.5 Z"/></g>
<g><path style="opacity:0.008" fill="#f9fafa" d="M 406.5,91.5 C 407.946,90.3871 409.613,90.2204 411.5,91C 409.866,91.4935 408.199,91.6602 406.5,91.5 Z"/></g>
<g><path style="opacity:0.009" fill="#f9fafa" d="M 462.5,91.5 C 463.946,90.3871 465.613,90.2204 467.5,91C 465.866,91.4935 464.199,91.6602 462.5,91.5 Z"/></g>
<g><path style="opacity:0.75" fill="#fbd070" d="M 516.5,89.5 C 517.833,89.5 519.167,89.5 520.5,89.5C 520.5,91.1667 520.5,92.8333 520.5,94.5C 519.167,94.5 517.833,94.5 516.5,94.5C 516.5,92.8333 516.5,91.1667 516.5,89.5 Z"/></g>
<g><path style="opacity:0.216" fill="#ababae" d="M 239.5,103.5 C 239.843,101.517 239.176,100.183 237.5,99.5C 237.908,98.3569 238.575,97.3569 239.5,96.5C 240.797,98.9732 240.797,101.307 239.5,103.5 Z"/></g>
</svg>
